<?xml version="1.0" encoding="UTF-8" standalone="yes"?><svg xmlns:xlink="http://www.w3.org/1999/xlink" xmlns="http://www.w3.org/2000/svg" xmlns:svg="http://www.w3.org/2000/svg" xmlns:rdf="http://www.w3.org/1999/02/22-rdf-syntax-ns#" xmlns:cc="http://creativecommons.org/ns#" xmlns:dc="http://purl.org/dc/elements/1.1/" version="1.1" id="svg3320" height="480" width="640" style="zoom: 1;"><defs id="defs3322"><radialGradient xlink:href="#linearGradient2807" id="radialGradient2813" cx="15.491823" cy="10.943316" fx="15.491823" fy="10.943316" r="18.370251" gradientTransform="matrix(1.402663,0,0,1.115648,-6.237984,0.0533075)" gradientUnits="userSpaceOnUse"></radialGradient><radialGradient xlink:href="#linearGradient8543" id="radialGradient2798" gradientUnits="userSpaceOnUse" gradientTransform="matrix(0.101953,-0.04272301,0.09621296,0.229599,-48.67227,-64.24148)" cx="131.23691" cy="424.15677" fx="131.23691" fy="424.15677" r="35.934704"></radialGradient><radialGradient xlink:href="#linearGradient18284" id="radialGradient18290" cx="29.898689" cy="45.673546" fx="29.898689" fy="45.673546" r="30.365856" gradientTransform="matrix(1,0,0,0.415385,0,26.70146)" gradientUnits="userSpaceOnUse"></radialGradient><radialGradient xlink:href="#linearGradient8543" id="radialGradient13895" cx="340.35886" cy="409.83737" fx="340.35886" fy="409.83737" r="103.26014" gradientTransform="matrix(0.105628,-0.04514018,0.06692574,0.156607,-46.01605,-24.35485)" gradientUnits="userSpaceOnUse"></radialGradient><radialGradient xlink:href="#linearGradient11202" id="radialGradient11208" cx="424.99243" cy="270.67969" fx="424.99243" fy="270.67969" r="38.451698" gradientTransform="matrix(0.08174351,0.01024998,-0.04335971,0.345793,6.123413,-84.50421)" gradientUnits="userSpaceOnUse"></radialGradient><radialGradient xlink:href="#linearGradient8543" id="radialGradient10317" cx="293.81989" cy="243.06874" fx="293.81989" fy="243.06874" r="48.782982" gradientTransform="matrix(0.272962,-0.071724,0.05616202,0.213737,-78.54657,-24.30491)" gradientUnits="userSpaceOnUse"></radialGradient><radialGradient xlink:href="#linearGradient8543" id="radialGradient9434" cx="500.97794" cy="286.46918" fx="500.97794" fy="286.46918" r="40.975471" gradientTransform="matrix(0.224796,0.01017229,-0.00975947,0.215674,-73.87964,-54.89804)" gradientUnits="userSpaceOnUse"></radialGradient><radialGradient xlink:href="#linearGradient8543" id="radialGradient8549" cx="420.87839" cy="685.99139" fx="420.87839" fy="685.99139" r="235.88632" gradientTransform="matrix(0.163532,-0.01065754,0.01078108,0.165425,-46.18187,-65.65506)" gradientUnits="userSpaceOnUse"></radialGradient><radialGradient xlink:href="#linearGradient5012" id="radialGradient7666" gradientUnits="userSpaceOnUse" gradientTransform="matrix(0.136507,0,-4.484926e-5,0.07137743,-23.39816,12.31028)" cx="336.73767" cy="-72.420044" fx="336.73767" fy="-72.420044" r="297.21338"></radialGradient><linearGradient id="linearGradient5012"><stop style="stop-color:#fdf188;stop-opacity:1;" offset="0" id="stop5014"></stop><stop style="stop-color:#d3bc00;stop-opacity:1;" offset="1" id="stop5016"></stop></linearGradient><linearGradient id="linearGradient8543"><stop style="stop-color:#fffef5;stop-opacity:0.94117647;" offset="0" id="stop8545"></stop><stop style="stop-color:#fce94f;stop-opacity:0;" offset="1" id="stop8547"></stop></linearGradient><linearGradient id="linearGradient11202"><stop style="stop-color:#c4a000;stop-opacity:1;" offset="0" id="stop11204"></stop><stop style="stop-color:#c4a000;stop-opacity:0;" offset="1" id="stop11206"></stop></linearGradient><linearGradient id="linearGradient18284"><stop style="stop-color:#000000;stop-opacity:1;" offset="0" id="stop18286"></stop><stop id="stop20913" offset="0.5" style="stop-color:#000000;stop-opacity:1;"></stop><stop id="stop19165" offset="1" style="stop-color:#000000;stop-opacity:0;"></stop></linearGradient><linearGradient id="linearGradient2807"><stop style="stop-color:#ffffff;stop-opacity:1;" offset="0" id="stop2809"></stop><stop style="stop-color:#ffffff;stop-opacity:0;" offset="1" id="stop2811"></stop></linearGradient></defs><metadata id="metadata3325"><rdf:RDF><cc:Work rdf:about=""><dc:format>image/svg+xml</dc:format><dc:type rdf:resource="http://purl.org/dc/dcmitype/StillImage"></dc:type></cc:Work></rdf:RDF></metadata><g transform="translate(0,-572)" id="layer1"><rect x="0px" style="fill:#000000;fill-opacity:1;stroke:none" height="480" y="572px" id="rect3328" width="640"></rect><text xml:space="preserve" style="font-style:normal;font-variant:normal;font-weight:bold;font-stretch:normal;line-height:0;font-family:'DejaVu Sans';-inkscape-font-specification:'DejaVu Sans Bold';text-align:start;letter-spacing:0px;word-spacing:0px;writing-mode:lr-tb;text-anchor:start;fill:#ffffff;fill-opacity:1;stroke:none" x="191" y="620" id="text3002"><tspan y="620" id="tspan3045" style="font-style:normal;font-weight:bold;font-size:20px;line-height:1;-inkscape-font-specification:'DejaVu Sans Bold'" x="191">PBS Live v1.0</tspan><tspan y="640" id="tspan1" style="font-style:normal; font-weight:bold; font-size:18px; line-height:1; -inkscape-font-specification:'DejaVu Sans Bold';" x="191">@PROJECT@ @VERSION@ (@DISTRIBUTION@)</tspan><tspan y="660" id="tspan3041" style="font-style:normal; font-weight:bold; font-size:18px; line-height:1; -inkscape-font-specification:'DejaVu Sans Bold';" x="191">@ARCHITECTURE@</tspan><tspan y="680" id="tspan3037" style="font-style:normal;font-weight:bold;font-size:20px;line-height:1;-inkscape-font-specification:'DejaVu Sans Bold'" x="191"></tspan><tspan y="700" id="tspan3039" style="font-style:normal;font-weight:bold;font-size:16px;line-height:1.2;-inkscape-font-specification:'DejaVu Sans Bold'" x="191">Built: @YEAR@-@MONTH@-@DAY@ @HOUR@:@MINUTE@:@SECOND@ @TIMEZONE@</tspan><tspan y="716" id="tspan3098" style="font-style:normal;font-weight:bold;font-size:10px;line-height:1.2;-inkscape-font-specification:'DejaVu Sans Bold'" x="191"></tspan><tspan y="732" id="tspan3102" style="font-style:normal;font-weight:normal;font-size:10px;line-height:1.2;-inkscape-font-specification:'DejaVu Sans'" x="191">linux: @LINUX_VERSIONS@</tspan><tspan y="748" id="tspan3076" style="font-style:normal;font-weight:normal;font-size:10px;line-height:1.2;-inkscape-font-specification:'DejaVu Sans'" x="191">live-build: @LIVE_BUILD_VERSION@</tspan><tspan y="764" id="tspan3068" style="font-style:normal;font-weight:normal;font-size:10px;line-height:1.2;-inkscape-font-specification:'DejaVu Sans'" x="191">live-boot: @LIVE_BOOT_VERSION@</tspan><tspan y="780" id="tspan3070" style="font-style:normal;font-weight:normal;font-size:10px;line-height:1.2;-inkscape-font-specification:'DejaVu Sans'" x="191">live-config: @LIVE_CONFIG_VERSION@</tspan><tspan y="796" id="tspan3012" style="font-style:normal;font-weight:normal;font-size:10px;line-height:1.2;-inkscape-font-specification:'DejaVu Sans'" x="191">live-tools: @LIVE_TOOLS_VERSION@</tspan></text></g><g id="g1" transform="scale(0.4 0.4) translate(-10 70)"><polygon style="fill:#FF4719;" points="329.194,359.108 329.194,417.934 255.999,450.614 182.805,417.934 182.805,359.108"></polygon><polygon style="fill:#111449;" points="394.163,8.443 347.942,8.443 411.724,385.253 444.405,385.253 444.405,58.684"></polygon><polygon style="fill:#27467A;" points="347.942,8.443 255.999,41.123 164.052,8.443 67.594,8.443 67.594,385.253 132.956,385.253 255.999,341.678 379.043,385.253 411.724,385.253 411.724,72.225"></polygon><rect x="118.74" y="223.134" style="fill:#A0F6FA;" width="274.519" height="162.119"></rect><polygon style="fill:#FF754F;" points="329.194,417.934 329.194,470.463 255.999,504.102 182.805,470.463 182.805,417.934"></polygon><polygon style="fill:#50D1DD;" points="350.131,8.443 350.131,163.35 318.54,163.35 285.859,85.896 318.54,8.443"></polygon><polygon style="fill:#78E3EC;" points="318.534,129.86 255.999,8.443 161.868,8.443 161.868,163.35 318.54,163.35"></polygon><rect x="255.999" y="8.443" style="fill:#111449;" width="62.54" height="121.42"></rect><path d="M159.112,222.859 c0,-4.513 -3.657,-8.17 -8.17,-8.17 h-32.681 c-4.513,0 -8.17,3.657 -8.17,8.17 V352.3 c0,4.513 3.657,8.17 8.17,8.17 c4.513,0 8.17,-3.657 8.17,-8.17 V231.03 h24.511 C155.454,231.03 159.112,227.373 159.112,222.859 "></path><path d="M175.452,222.859 c0,4.513 3.657,8.17 8.17,8.17 h201.946 V352.3 c0,4.513 3.658,8.17 8.17,8.17 c4.513,0 8.17,-3.657 8.17,-8.17 v-129.44 c0,-4.513 -3.657,-8.17 -8.17,-8.17 H183.622 C179.109,214.689 175.452,218.347 175.452,222.859 "></path><path d="M450.183,52.638 L399.941,2.393 C398.408,0.861 396.33,0 394.163,0 H67.594 c-4.513,0 -8.17,3.657 -8.17,8.17 v376.81 c0,4.513 3.657,8.17 8.17,8.17 h376.81 c4.513,0 8.17,-3.657 8.17,-8.17 V58.415 C452.575,56.248 451.714,54.171 450.183,52.638 M169.58,16.34 h78.249 v113.247 c0,4.513 3.657,8.17 8.17,8.17 h61.908 c4.513,0 8.17,-3.657 8.17,-8.17 V40.851 c0,-4.513 -3.657,-8.17 -8.17,-8.17 c-4.513,0 -8.17,3.657 -8.17,8.17 v80.566 H264.17 V16.34 h78.249 v138.571 H169.58 V16.34 M436.234,376.81 H75.765 V16.34 h77.475 v146.741 c0,4.513 3.657,8.17 8.17,8.17 h189.179 c4.513,0 8.17,-3.657 8.17,-8.17 V16.34 h32.02 l45.456,45.458 V376.81 "></path><path d="M361.058,311.448 H150.941 c-4.513,0 -8.17,3.657 -8.17,8.17 c0,4.513 3.657,8.17 8.17,8.17 h210.116 c4.513,0 8.17,-3.657 8.17,-8.17 C369.228,315.107 365.571,311.448 361.058,311.448 "></path><path d="M361.058,278.768 H150.941 c-4.513,0 -8.17,3.657 -8.17,8.17 c0,4.513 3.657,8.17 8.17,8.17 h210.116 c4.513,0 8.17,-3.657 8.17,-8.17 C369.228,282.426 365.571,278.768 361.058,278.768 "></path><path d="M352.137,450.653 l-14.772,6.789 l-0.001,-39.78 c0,-4.513 -3.658,-8.17 -8.17,-8.17 c-4.512,0 -8.17,3.658 -8.17,8.17 l0.001,47.29 l-65.025,29.887 l-65.025,-29.887 v-47.29 c0,-4.513 -3.657,-8.17 -8.17,-8.17 c-4.513,0 -8.17,3.657 -8.17,8.17 v39.78 l-14.772,-6.789 c-4.099,-1.886 -8.95,-0.087 -10.835,4.012 c-1.885,4.1 -0.088,8.951 4.012,10.835 l99.549,45.753 c1.083,0.498 2.247,0.746 3.412,0.746 s2.329,-0.248 3.412,-0.746 l99.549,-45.753 c4.1,-1.885 5.897,-6.736 4.012,-10.835 C361.088,450.565 356.238,448.767 352.137,450.653 "></path></g></svg>